<svg width="487" height="93" viewBox="0 0 487 93" fill="none" xmlns="http://www.w3.org/2000/svg">
<path d="M17.3125 61.25C9.8125 59.1458 6.0625 54.3021 6.0625 46.7188V40.5C6.0625 36.1042 4.20833 33.9062 0.5 33.9062V27.4375C4.125 27.4375 5.97917 25.3646 6.0625 21.2188V14.5938C6.0625 10.7396 7 7.625 8.875 5.25C10.75 2.875 13.5625 1.15625 17.3125 0.09375L19.0625 5.125C17.4792 5.70833 16.2812 6.72917 15.4688 8.1875C14.6562 9.625 14.2292 11.625 14.1875 14.1875V20.75C14.1875 25.4583 12.3229 28.7604 8.59375 30.6562C12.3229 32.5729 14.1875 35.8958 14.1875 40.625V47.25C14.2917 52.125 15.9167 55.1042 19.0625 56.1875L17.3125 61.25Z" fill="black"/>
<path d="M59.9062 34.8438C59.5521 39.7396 57.7396 43.5938 54.4688 46.4062C51.2188 49.2188 46.9271 50.625 41.5938 50.625C35.7604 50.625 31.1667 48.6667 27.8125 44.75C24.4792 40.8125 22.8125 35.4167 22.8125 28.5625V25.7812C22.8125 21.4062 23.5833 17.5521 25.125 14.2188C26.6667 10.8854 28.8646 8.33333 31.7188 6.5625C34.5938 4.77083 37.9271 3.875 41.7188 3.875C46.9688 3.875 51.1979 5.28125 54.4062 8.09375C57.6146 10.9062 59.4688 14.8542 59.9688 19.9375H50.5938C50.3646 17 49.5417 14.875 48.125 13.5625C46.7292 12.2292 44.5938 11.5625 41.7188 11.5625C38.5938 11.5625 36.25 12.6875 34.6875 14.9375C33.1458 17.1667 32.3542 20.6354 32.3125 25.3438V28.7812C32.3125 33.6979 33.0521 37.2917 34.5312 39.5625C36.0312 41.8333 38.3854 42.9688 41.5938 42.9688C44.4896 42.9688 46.6458 42.3125 48.0625 41C49.5 39.6667 50.3229 37.6146 50.5312 34.8438H59.9062Z" fill="black"/>
<path d="M64.0625 32.7812C64.0625 29.4271 64.7083 26.4375 66 23.8125C67.2917 21.1875 69.1458 19.1562 71.5625 17.7188C74 16.2812 76.8229 15.5625 80.0312 15.5625C84.5938 15.5625 88.3125 16.9583 91.1875 19.75C94.0833 22.5417 95.6979 26.3333 96.0312 31.125L96.0938 33.4375C96.0938 38.625 94.6458 42.7917 91.75 45.9375C88.8542 49.0625 84.9688 50.625 80.0938 50.625C75.2188 50.625 71.3229 49.0625 68.4062 45.9375C65.5104 42.8125 64.0625 38.5625 64.0625 33.1875V32.7812ZM73.0938 33.4375C73.0938 36.6458 73.6979 39.1042 74.9062 40.8125C76.1146 42.5 77.8438 43.3438 80.0938 43.3438C82.2812 43.3438 83.9896 42.5104 85.2188 40.8438C86.4479 39.1562 87.0625 36.4688 87.0625 32.7812C87.0625 29.6354 86.4479 27.1979 85.2188 25.4688C83.9896 23.7396 82.2604 22.875 80.0312 22.875C77.8229 22.875 76.1146 23.7396 74.9062 25.4688C73.6979 27.1771 73.0938 29.8333 73.0938 33.4375Z" fill="black"/>
<path d="M109.969 16.1875L110.25 20.0938C112.667 17.0729 115.906 15.5625 119.969 15.5625C123.552 15.5625 126.219 16.6146 127.969 18.7188C129.719 20.8229 130.615 23.9688 130.656 28.1562V50H121.625V28.375C121.625 26.4583 121.208 25.0729 120.375 24.2188C119.542 23.3438 118.156 22.9062 116.219 22.9062C113.677 22.9062 111.771 23.9896 110.5 26.1562V50H101.469V16.1875H109.969Z" fill="black"/>
<path d="M155.844 40.6562C155.844 39.5521 155.292 38.6875 154.188 38.0625C153.104 37.4167 151.354 36.8438 148.938 36.3438C140.896 34.6562 136.875 31.2396 136.875 26.0938C136.875 23.0938 138.115 20.5938 140.594 18.5938C143.094 16.5729 146.354 15.5625 150.375 15.5625C154.667 15.5625 158.094 16.5729 160.656 18.5938C163.24 20.6146 164.531 23.2396 164.531 26.4688H155.5C155.5 25.1771 155.083 24.1146 154.25 23.2812C153.417 22.4271 152.115 22 150.344 22C148.823 22 147.646 22.3438 146.812 23.0312C145.979 23.7188 145.562 24.5938 145.562 25.6562C145.562 26.6562 146.031 27.4688 146.969 28.0938C147.927 28.6979 149.531 29.2292 151.781 29.6875C154.031 30.125 155.927 30.625 157.469 31.1875C162.24 32.9375 164.625 35.9688 164.625 40.2812C164.625 43.3646 163.302 45.8646 160.656 47.7812C158.01 49.6771 154.594 50.625 150.406 50.625C147.573 50.625 145.052 50.125 142.844 49.125C140.656 48.1042 138.938 46.7188 137.688 44.9688C136.438 43.1979 135.812 41.2917 135.812 39.25H144.375C144.458 40.8542 145.052 42.0833 146.156 42.9375C147.26 43.7917 148.74 44.2188 150.594 44.2188C152.323 44.2188 153.625 43.8958 154.5 43.25C155.396 42.5833 155.844 41.7188 155.844 40.6562Z" fill="black"/>
<path d="M190.719 46.5625C188.49 49.2708 185.406 50.625 181.469 50.625C177.844 50.625 175.073 49.5833 173.156 47.5C171.26 45.4167 170.292 42.3646 170.25 38.3438V16.1875H179.281V38.0312C179.281 41.5521 180.885 43.3125 184.094 43.3125C187.156 43.3125 189.26 42.25 190.406 40.125V16.1875H199.469V50H190.969L190.719 46.5625Z" fill="black"/>
<path d="M214.75 16.1875L215.031 19.9688C217.427 17.0312 220.667 15.5625 224.75 15.5625C229.104 15.5625 232.094 17.2812 233.719 20.7188C236.094 17.2812 239.479 15.5625 243.875 15.5625C247.542 15.5625 250.271 16.6354 252.062 18.7812C253.854 20.9062 254.75 24.1146 254.75 28.4062V50H245.688V28.4375C245.688 26.5208 245.312 25.125 244.562 24.25C243.812 23.3542 242.49 22.9062 240.594 22.9062C237.885 22.9062 236.01 24.1979 234.969 26.7812L235 50H225.969V28.4688C225.969 26.5104 225.583 25.0938 224.812 24.2188C224.042 23.3438 222.729 22.9062 220.875 22.9062C218.312 22.9062 216.458 23.9688 215.312 26.0938V50H206.281V16.1875H214.75Z" fill="black"/>
<path d="M271.25 50H262.188V16.1875H271.25V50ZM261.656 7.4375C261.656 6.08333 262.104 4.96875 263 4.09375C263.917 3.21875 265.156 2.78125 266.719 2.78125C268.26 2.78125 269.49 3.21875 270.406 4.09375C271.323 4.96875 271.781 6.08333 271.781 7.4375C271.781 8.8125 271.312 9.9375 270.375 10.8125C269.458 11.6875 268.24 12.125 266.719 12.125C265.198 12.125 263.969 11.6875 263.031 10.8125C262.115 9.9375 261.656 8.8125 261.656 7.4375Z" fill="black"/>
<path d="M287.031 16.1875L287.312 20.0938C289.729 17.0729 292.969 15.5625 297.031 15.5625C300.615 15.5625 303.281 16.6146 305.031 18.7188C306.781 20.8229 307.677 23.9688 307.719 28.1562V50H298.688V28.375C298.688 26.4583 298.271 25.0729 297.438 24.2188C296.604 23.3438 295.219 22.9062 293.281 22.9062C290.74 22.9062 288.833 23.9896 287.562 26.1562V50H278.531V16.1875H287.031Z" fill="black"/>
<path d="M313.281 32.8438C313.281 27.6562 314.51 23.4792 316.969 20.3125C319.448 17.1458 322.781 15.5625 326.969 15.5625C330.677 15.5625 333.562 16.8333 335.625 19.375L336 16.1875H344.188V48.875C344.188 51.8333 343.51 54.4062 342.156 56.5938C340.823 58.7812 338.938 60.4479 336.5 61.5938C334.062 62.7396 331.208 63.3125 327.938 63.3125C325.458 63.3125 323.042 62.8125 320.688 61.8125C318.333 60.8333 316.552 59.5625 315.344 58L319.344 52.5C321.594 55.0208 324.323 56.2812 327.531 56.2812C329.927 56.2812 331.792 55.6354 333.125 54.3438C334.458 53.0729 335.125 51.2604 335.125 48.9062V47.0938C333.042 49.4479 330.302 50.625 326.906 50.625C322.844 50.625 319.552 49.0417 317.031 45.875C314.531 42.6875 313.281 38.4688 313.281 33.2188V32.8438ZM322.312 33.5C322.312 36.5625 322.927 38.9688 324.156 40.7188C325.385 42.4479 327.073 43.3125 329.219 43.3125C331.969 43.3125 333.938 42.2812 335.125 40.2188V26C333.917 23.9375 331.969 22.9062 329.281 22.9062C327.115 22.9062 325.406 23.7917 324.156 25.5625C322.927 27.3333 322.312 29.9792 322.312 33.5Z" fill="black"/>
<path d="M393.375 40.625H376.938L373.812 50H363.844L380.781 4.5H389.469L406.5 50H396.531L393.375 40.625ZM379.469 33.0312H390.844L385.125 16L379.469 33.0312Z" fill="black"/>
<path d="M420.125 33.9688V50H410.75V4.5H428.5C431.917 4.5 434.917 5.125 437.5 6.375C440.104 7.625 442.104 9.40625 443.5 11.7188C444.896 14.0104 445.594 16.625 445.594 19.5625C445.594 24.0208 444.062 27.5417 441 30.125C437.958 32.6875 433.74 33.9688 428.344 33.9688H420.125ZM420.125 26.375H428.5C430.979 26.375 432.865 25.7917 434.156 24.625C435.469 23.4583 436.125 21.7917 436.125 19.625C436.125 17.3958 435.469 15.5938 434.156 14.2188C432.844 12.8438 431.031 12.1354 428.719 12.0938H420.125V26.375Z" fill="black"/>
<path d="M462.031 50H452.656V4.5H462.031V50Z" fill="black"/>
<path d="M467.75 56.1875C470.917 55.0625 472.542 52.0417 472.625 47.125V40.5C472.625 35.7917 474.531 32.5208 478.344 30.6875C474.531 28.8542 472.625 25.5312 472.625 20.7188V14.1875C472.542 9.33333 470.917 6.3125 467.75 5.125L469.5 0.09375C473.229 1.13542 476.031 2.84375 477.906 5.21875C479.781 7.57292 480.729 10.6667 480.75 14.5V21.2188C480.833 25.3646 482.688 27.4375 486.312 27.4375V33.9062C482.604 33.9062 480.75 36.0833 480.75 40.4375V47.2188C480.583 54.5104 476.833 59.1875 469.5 61.25L467.75 56.1875Z" fill="black"/>
<path d="M327.03 91V82.7471H325.527V81.4902H327.03V80.5146C327.03 79.4951 327.303 78.707 327.848 78.1504C328.393 77.5938 329.163 77.3154 330.159 77.3154C330.534 77.3154 330.906 77.3652 331.275 77.4648L331.188 78.7832C330.912 78.7305 330.619 78.7041 330.309 78.7041C329.781 78.7041 329.374 78.8594 329.087 79.1699C328.8 79.4746 328.656 79.9141 328.656 80.4883V81.4902H330.687V82.7471H328.656V91H327.03Z" fill="black"/>
<path d="M337.085 82.9492C336.839 82.9082 336.572 82.8877 336.285 82.8877C335.219 82.8877 334.495 83.3418 334.114 84.25V91H332.488V81.4902H334.07L334.097 82.5889C334.63 81.7393 335.386 81.3145 336.364 81.3145C336.681 81.3145 336.921 81.3555 337.085 81.4375V82.9492Z" fill="black"/>
<path d="M337.981 86.1572C337.981 85.2256 338.163 84.3877 338.526 83.6436C338.896 82.8994 339.405 82.3252 340.056 81.9209C340.712 81.5166 341.459 81.3145 342.297 81.3145C343.592 81.3145 344.638 81.7627 345.435 82.6592C346.237 83.5557 346.639 84.748 346.639 86.2363V86.3506C346.639 87.2764 346.46 88.1084 346.103 88.8467C345.751 89.5791 345.244 90.1504 344.582 90.5605C343.926 90.9707 343.17 91.1758 342.314 91.1758C341.025 91.1758 339.979 90.7275 339.177 89.8311C338.38 88.9346 337.981 87.748 337.981 86.2715V86.1572ZM339.616 86.3506C339.616 87.4053 339.859 88.252 340.346 88.8906C340.838 89.5293 341.494 89.8486 342.314 89.8486C343.141 89.8486 343.797 89.5264 344.283 88.8818C344.77 88.2314 345.013 87.3232 345.013 86.1572C345.013 85.1143 344.764 84.2705 344.266 83.626C343.773 82.9756 343.117 82.6504 342.297 82.6504C341.494 82.6504 340.847 82.9697 340.354 83.6084C339.862 84.2471 339.616 85.1611 339.616 86.3506Z" fill="black"/>
<path d="M350.216 81.4902L350.269 82.6855C350.995 81.7715 351.944 81.3145 353.116 81.3145C355.126 81.3145 356.14 82.4482 356.157 84.7158V91H354.531V84.707C354.525 84.0215 354.367 83.5146 354.057 83.1865C353.752 82.8584 353.274 82.6943 352.624 82.6943C352.097 82.6943 351.634 82.835 351.235 83.1162C350.837 83.3975 350.526 83.7666 350.304 84.2236V91H348.678V81.4902H350.216Z" fill="black"/>
<path d="M360.815 79.1875V81.4902H362.591V82.7471H360.815V88.6445C360.815 89.0254 360.895 89.3125 361.053 89.5059C361.211 89.6934 361.48 89.7871 361.861 89.7871C362.049 89.7871 362.307 89.752 362.635 89.6816V91C362.207 91.1172 361.791 91.1758 361.387 91.1758C360.66 91.1758 360.112 90.9561 359.743 90.5166C359.374 90.0771 359.189 89.4531 359.189 88.6445V82.7471H357.458V81.4902H359.189V79.1875H360.815Z" fill="black"/>
<path d="M367.882 86.2275H363.593V84.9004H367.882V86.2275Z" fill="black"/>
<path d="M373.419 91.1758C372.13 91.1758 371.081 90.7539 370.272 89.9102C369.464 89.0605 369.06 87.9268 369.06 86.5088V86.21C369.06 85.2666 369.238 84.4258 369.596 83.6875C369.959 82.9434 370.463 82.3633 371.107 81.9473C371.758 81.5254 372.461 81.3145 373.217 81.3145C374.453 81.3145 375.414 81.7217 376.1 82.5361C376.785 83.3506 377.128 84.5166 377.128 86.0342V86.7109H370.686C370.709 87.6484 370.981 88.4072 371.503 88.9873C372.03 89.5615 372.698 89.8486 373.507 89.8486C374.081 89.8486 374.567 89.7314 374.966 89.4971C375.364 89.2627 375.713 88.9521 376.012 88.5654L377.005 89.3389C376.208 90.5635 375.013 91.1758 373.419 91.1758ZM373.217 82.6504C372.561 82.6504 372.01 82.8906 371.564 83.3711C371.119 83.8457 370.844 84.5137 370.738 85.375H375.502V85.252C375.455 84.4258 375.232 83.7871 374.834 83.3359C374.436 82.8789 373.896 82.6504 373.217 82.6504Z" fill="black"/>
<path d="M380.556 81.4902L380.608 82.6855C381.335 81.7715 382.284 81.3145 383.456 81.3145C385.466 81.3145 386.479 82.4482 386.497 84.7158V91H384.871V84.707C384.865 84.0215 384.707 83.5146 384.396 83.1865C384.092 82.8584 383.614 82.6943 382.964 82.6943C382.437 82.6943 381.974 82.835 381.575 83.1162C381.177 83.3975 380.866 83.7666 380.644 84.2236V91H379.018V81.4902H380.556Z" fill="black"/>
<path d="M388.554 86.166C388.554 84.707 388.899 83.5352 389.591 82.6504C390.282 81.7598 391.188 81.3145 392.307 81.3145C393.42 81.3145 394.302 81.6953 394.952 82.457V77.5H396.578V91H395.084L395.005 89.9805C394.354 90.7773 393.449 91.1758 392.289 91.1758C391.188 91.1758 390.288 90.7246 389.591 89.8223C388.899 88.9199 388.554 87.7422 388.554 86.2891V86.166ZM390.18 86.3506C390.18 87.4287 390.402 88.2725 390.848 88.8818C391.293 89.4912 391.908 89.7959 392.693 89.7959C393.725 89.7959 394.478 89.333 394.952 88.4072V84.0391C394.466 83.1426 393.719 82.6943 392.711 82.6943C391.914 82.6943 391.293 83.002 390.848 83.6172C390.402 84.2324 390.18 85.1436 390.18 86.3506Z" fill="black"/>
<path d="M403.899 92.0986H402.502L407.846 78.2031H409.234L403.899 92.0986Z" fill="black"/>
<path d="M423.508 86.3506C423.508 87.8037 423.174 88.9727 422.506 89.8574C421.838 90.7363 420.941 91.1758 419.816 91.1758C418.615 91.1758 417.687 90.751 417.03 89.9014L416.951 91H415.457V77.5H417.083V82.5361C417.739 81.7217 418.645 81.3145 419.799 81.3145C420.953 81.3145 421.858 81.751 422.515 82.624C423.177 83.4971 423.508 84.6924 423.508 86.21V86.3506ZM421.882 86.166C421.882 85.0586 421.668 84.2031 421.24 83.5996C420.812 82.9961 420.197 82.6943 419.395 82.6943C418.322 82.6943 417.552 83.1924 417.083 84.1885V88.3018C417.581 89.2979 418.357 89.7959 419.412 89.7959C420.191 89.7959 420.798 89.4941 421.231 88.8906C421.665 88.2871 421.882 87.3789 421.882 86.166Z" fill="black"/>
<path d="M431.436 91C431.342 90.8125 431.266 90.4785 431.207 89.998C430.451 90.7832 429.549 91.1758 428.5 91.1758C427.562 91.1758 426.792 90.9121 426.188 90.3848C425.591 89.8516 425.292 89.1777 425.292 88.3633C425.292 87.373 425.667 86.6055 426.417 86.0605C427.173 85.5098 428.233 85.2344 429.599 85.2344H431.181V84.4873C431.181 83.9189 431.011 83.4678 430.671 83.1338C430.331 82.7939 429.83 82.624 429.168 82.624C428.588 82.624 428.102 82.7705 427.709 83.0635C427.316 83.3564 427.12 83.7109 427.12 84.127H425.485C425.485 83.6523 425.652 83.1953 425.986 82.7559C426.326 82.3105 426.783 81.959 427.357 81.7012C427.938 81.4434 428.573 81.3145 429.265 81.3145C430.36 81.3145 431.219 81.5898 431.84 82.1406C432.461 82.6855 432.783 83.4385 432.807 84.3994V88.7764C432.807 89.6494 432.918 90.3438 433.141 90.8594V91H431.436ZM428.737 89.7607C429.247 89.7607 429.73 89.6289 430.188 89.3652C430.645 89.1016 430.976 88.7588 431.181 88.3369V86.3857H429.906C427.914 86.3857 426.918 86.9688 426.918 88.1348C426.918 88.6445 427.088 89.043 427.428 89.3301C427.768 89.6172 428.204 89.7607 428.737 89.7607Z" fill="black"/>
<path d="M439.17 89.8486C439.75 89.8486 440.257 89.6729 440.69 89.3213C441.124 88.9697 441.364 88.5303 441.411 88.0029H442.949C442.92 88.5479 442.732 89.0664 442.387 89.5586C442.041 90.0508 441.578 90.4434 440.998 90.7363C440.424 91.0293 439.814 91.1758 439.17 91.1758C437.875 91.1758 436.844 90.7451 436.076 89.8838C435.314 89.0166 434.934 87.833 434.934 86.333V86.0605C434.934 85.1348 435.104 84.3115 435.443 83.5908C435.783 82.8701 436.27 82.3105 436.902 81.9121C437.541 81.5137 438.294 81.3145 439.161 81.3145C440.228 81.3145 441.112 81.6338 441.815 82.2725C442.524 82.9111 442.902 83.7402 442.949 84.7598H441.411C441.364 84.1445 441.13 83.6406 440.708 83.248C440.292 82.8496 439.776 82.6504 439.161 82.6504C438.335 82.6504 437.693 82.9492 437.236 83.5469C436.785 84.1387 436.56 84.9971 436.56 86.1221V86.4297C436.56 87.5254 436.785 88.3691 437.236 88.9609C437.688 89.5527 438.332 89.8486 439.17 89.8486Z" fill="black"/>
<path d="M447.432 86.5967L446.412 87.6602V91H444.786V77.5H446.412V85.665L447.282 84.6191L450.244 81.4902H452.222L448.521 85.4629L452.652 91H450.745L447.432 86.5967Z" fill="black"/>
<path d="M457.284 86.2275H452.995V84.9004H457.284V86.2275Z" fill="black"/>
<path d="M462.821 91.1758C461.532 91.1758 460.483 90.7539 459.675 89.9102C458.866 89.0605 458.462 87.9268 458.462 86.5088V86.21C458.462 85.2666 458.641 84.4258 458.998 83.6875C459.361 82.9434 459.865 82.3633 460.51 81.9473C461.16 81.5254 461.863 81.3145 462.619 81.3145C463.855 81.3145 464.816 81.7217 465.502 82.5361C466.188 83.3506 466.53 84.5166 466.53 86.0342V86.7109H460.088C460.111 87.6484 460.384 88.4072 460.905 88.9873C461.433 89.5615 462.101 89.8486 462.909 89.8486C463.483 89.8486 463.97 89.7314 464.368 89.4971C464.767 89.2627 465.115 88.9521 465.414 88.5654L466.407 89.3389C465.61 90.5635 464.415 91.1758 462.821 91.1758ZM462.619 82.6504C461.963 82.6504 461.412 82.8906 460.967 83.3711C460.521 83.8457 460.246 84.5137 460.141 85.375H464.904V85.252C464.857 84.4258 464.635 83.7871 464.236 83.3359C463.838 82.8789 463.299 82.6504 462.619 82.6504Z" fill="black"/>
<path d="M469.958 81.4902L470.011 82.6855C470.737 81.7715 471.687 81.3145 472.858 81.3145C474.868 81.3145 475.882 82.4482 475.899 84.7158V91H474.273V84.707C474.268 84.0215 474.109 83.5146 473.799 83.1865C473.494 82.8584 473.017 82.6943 472.366 82.6943C471.839 82.6943 471.376 82.835 470.978 83.1162C470.579 83.3975 470.269 83.7666 470.046 84.2236V91H468.42V81.4902H469.958Z" fill="black"/>
<path d="M477.956 86.166C477.956 84.707 478.302 83.5352 478.993 82.6504C479.685 81.7598 480.59 81.3145 481.709 81.3145C482.822 81.3145 483.704 81.6953 484.354 82.457V77.5H485.98V91H484.486L484.407 89.9805C483.757 90.7773 482.852 91.1758 481.691 91.1758C480.59 91.1758 479.69 90.7246 478.993 89.8223C478.302 88.9199 477.956 87.7422 477.956 86.2891V86.166ZM479.582 86.3506C479.582 87.4287 479.805 88.2725 480.25 88.8818C480.695 89.4912 481.311 89.7959 482.096 89.7959C483.127 89.7959 483.88 89.333 484.354 88.4072V84.0391C483.868 83.1426 483.121 82.6943 482.113 82.6943C481.316 82.6943 480.695 83.002 480.25 83.6172C479.805 84.2324 479.582 85.1436 479.582 86.3506Z" fill="black"/>
</svg>
